<mxfile host="app.diagrams.net" modified="2020-11-12T23:43:29.945Z" agent="5.0 (X11)" etag="REhDzzP4ybJroaiIBT2h" compressed="false" version="13.9.7" type="device">
  <diagram name="Page-1" id="e3a06f82-3646-2815-327d-82caf3d4e204">
    <mxGraphModel dx="1422" dy="738" grid="1" gridSize="10" guides="1" tooltips="1" connect="1" arrows="1" fold="1" page="1" pageScale="1.5" pageWidth="827" pageHeight="583" background="#ffffff" math="0" shadow="1">
      <root>
        <mxCell id="0" style=";html=1;" />
        <mxCell id="1" style=";html=1;" parent="0" />
        <mxCell id="vg4Q64sPSbRJCFcJ-0NS-27" value="" style="whiteSpace=wrap;html=1;fontSize=14;verticalAlign=top;sketch=1;align=left;strokeColor=#36393d;fillColor=#eeeeee;" vertex="1" parent="1">
          <mxGeometry x="270" y="600" width="700" height="220" as="geometry" />
        </mxCell>
        <mxCell id="6a7d8f32e03d9370-59" value="&lt;font style=&quot;font-size: 22px&quot;&gt;Amazon AWS&lt;/font&gt;" style="whiteSpace=wrap;html=1;fillColor=#ffcc99;fontSize=14;verticalAlign=top;sketch=1;strokeColor=#36393d;" parent="1" vertex="1">
          <mxGeometry x="689" y="240" width="281" height="340" as="geometry" />
        </mxCell>
        <mxCell id="vg4Q64sPSbRJCFcJ-0NS-3" value="" style="whiteSpace=wrap;html=1;fontSize=14;verticalAlign=top;sketch=1;align=left;strokeColor=#36393d;fillColor=#eeeeee;" vertex="1" parent="1">
          <mxGeometry x="270" y="280" width="700" height="300" as="geometry" />
        </mxCell>
        <mxCell id="vg4Q64sPSbRJCFcJ-0NS-47" value="&lt;font style=&quot;font-size: 22px&quot;&gt;Microsoft Azure&lt;/font&gt;" style="whiteSpace=wrap;html=1;fillColor=#cce5ff;fontSize=14;verticalAlign=top;sketch=1;strokeColor=#36393d;" vertex="1" parent="1">
          <mxGeometry x="689" y="601.75" width="281" height="218.25" as="geometry" />
        </mxCell>
        <mxCell id="6a7d8f32e03d9370-57" value="&lt;font style=&quot;font-size: 22px&quot; color=&quot;#050505&quot;&gt;Client&lt;/font&gt;" style="whiteSpace=wrap;html=1;fontSize=14;verticalAlign=top;sketch=1;strokeColor=#36393d;fillColor=#cdeb8b;" parent="1" vertex="1">
          <mxGeometry x="270" y="110" width="320" height="710" as="geometry" />
        </mxCell>
        <mxCell id="6a7d8f32e03d9370-32" style="edgeStyle=none;html=1;startSize=10;endSize=10;jettySize=auto;orthogonalLoop=1;fontSize=14;endArrow=none;endFill=0;strokeWidth=2;curved=1;sketch=1;exitX=1;exitY=0.5;exitDx=0;exitDy=0;entryX=0.35;entryY=0.5;entryDx=0;entryDy=0;entryPerimeter=0;" parent="1" edge="1" target="cS2_gpzCforKgWBa57rc-7" source="cS2_gpzCforKgWBa57rc-6">
          <mxGeometry relative="1" as="geometry">
            <mxPoint x="542" y="346.25418994413405" as="sourcePoint" />
            <mxPoint x="728" y="343.13687150837984" as="targetPoint" />
          </mxGeometry>
        </mxCell>
        <mxCell id="vg4Q64sPSbRJCFcJ-0NS-58" value="&lt;div style=&quot;font-size: 16px&quot;&gt;&lt;font style=&quot;font-size: 16px&quot;&gt;Cooldown&lt;br&gt;&lt;/font&gt;&lt;/div&gt;" style="edgeLabel;html=1;align=center;verticalAlign=middle;resizable=0;points=[];" vertex="1" connectable="0" parent="6a7d8f32e03d9370-32">
          <mxGeometry x="0.1068" y="-5" relative="1" as="geometry">
            <mxPoint x="-11.79" y="-5.67" as="offset" />
          </mxGeometry>
        </mxCell>
        <mxCell id="cS2_gpzCforKgWBa57rc-10" value="" style="edgeStyle=orthogonalEdgeStyle;orthogonalLoop=1;jettySize=auto;html=1;curved=1;sketch=1;" parent="1" edge="1">
          <mxGeometry relative="1" as="geometry">
            <mxPoint x="759" y="530.5" as="sourcePoint" />
          </mxGeometry>
        </mxCell>
        <mxCell id="cS2_gpzCforKgWBa57rc-15" style="edgeStyle=orthogonalEdgeStyle;orthogonalLoop=1;jettySize=auto;html=1;curved=1;sketch=1;exitX=0;exitY=0.5;exitDx=0;exitDy=0;" parent="1" source="cS2_gpzCforKgWBa57rc-6" edge="1">
          <mxGeometry relative="1" as="geometry">
            <Array as="points">
              <mxPoint x="430" y="330" />
              <mxPoint x="430" y="365" />
            </Array>
            <mxPoint x="395" y="365" as="targetPoint" />
          </mxGeometry>
        </mxCell>
        <mxCell id="cS2_gpzCforKgWBa57rc-6" value="&lt;div style=&quot;font-size: 16px&quot;&gt;&lt;font style=&quot;font-size: 16px&quot;&gt;Goroutine burst #1&lt;br&gt;&lt;/font&gt;&lt;/div&gt;" style="shape=image;html=1;verticalAlign=top;verticalLabelPosition=bottom;labelBackgroundColor=#ffffff;imageAspect=0;aspect=fixed;image=https://cdn0.iconfinder.com/data/icons/web-development-79/32/development_setting_gear_cogwheel-71-128.png;sketch=1;" parent="1" vertex="1">
          <mxGeometry x="483.25" y="299.5" width="60.5" height="60.5" as="geometry" />
        </mxCell>
        <mxCell id="cS2_gpzCforKgWBa57rc-23" value="" style="edgeStyle=orthogonalEdgeStyle;orthogonalLoop=1;jettySize=auto;html=1;curved=1;sketch=1;" parent="1" source="cS2_gpzCforKgWBa57rc-7" target="cS2_gpzCforKgWBa57rc-22" edge="1">
          <mxGeometry relative="1" as="geometry" />
        </mxCell>
        <mxCell id="cS2_gpzCforKgWBa57rc-29" value="" style="edgeStyle=orthogonalEdgeStyle;orthogonalLoop=1;jettySize=auto;html=1;curved=1;sketch=1;" parent="1" target="cS2_gpzCforKgWBa57rc-24" edge="1">
          <mxGeometry relative="1" as="geometry">
            <mxPoint x="797.5" y="354.5" as="sourcePoint" />
          </mxGeometry>
        </mxCell>
        <mxCell id="vg4Q64sPSbRJCFcJ-0NS-22" value="" style="edgeStyle=orthogonalEdgeStyle;curved=1;sketch=1;orthogonalLoop=1;jettySize=auto;html=1;" edge="1" parent="1" target="vg4Q64sPSbRJCFcJ-0NS-21">
          <mxGeometry relative="1" as="geometry">
            <mxPoint x="797.5" y="521" as="sourcePoint" />
          </mxGeometry>
        </mxCell>
        <mxCell id="E6hC4jQGeJp1f0W_XPi9-2" value="" style="edgeStyle=orthogonalEdgeStyle;orthogonalLoop=1;jettySize=auto;html=1;curved=1;sketch=1;exitX=0.5;exitY=1;exitDx=0;exitDy=0;" parent="1" source="6a7d8f32e03d9370-24" target="E6hC4jQGeJp1f0W_XPi9-1" edge="1">
          <mxGeometry relative="1" as="geometry" />
        </mxCell>
        <mxCell id="6a7d8f32e03d9370-24" value="&lt;font style=&quot;font-size: 16px&quot;&gt;Recorded Latencies&lt;/font&gt;" style="shape=image;html=1;verticalAlign=top;verticalLabelPosition=bottom;labelBackgroundColor=#ffffff;imageAspect=0;aspect=fixed;image=https://cdn3.iconfinder.com/data/icons/lexter-flat-colorfull-file-formats/56/csv-128.png;fontFamily=Helvetica;fontSize=14;fontColor=#000000;align=center;strokeColor=#000000;fillColor=#66B2FF;gradientColor=#0066CC;sketch=1;" parent="1" vertex="1">
          <mxGeometry x="317.85" y="327.5" width="76.31" height="73" as="geometry" />
        </mxCell>
        <mxCell id="E6hC4jQGeJp1f0W_XPi9-1" value="&lt;font style=&quot;font-size: 16px&quot;&gt;CDFs, Bar Charts etc.&lt;br&gt;&lt;/font&gt;" style="shape=image;html=1;verticalAlign=top;verticalLabelPosition=bottom;labelBackgroundColor=#ffffff;imageAspect=0;aspect=fixed;image=https://cdn3.iconfinder.com/data/icons/finance-152/64/44-128.png;fontFamily=Helvetica;fontSize=14;fontColor=#000000;align=center;fillColor=#66B2FF;gradientColor=#0066CC;sketch=1;" parent="1" vertex="1">
          <mxGeometry x="326.21" y="453.5" width="59.58" height="57" as="geometry" />
        </mxCell>
        <mxCell id="E6hC4jQGeJp1f0W_XPi9-7" value="&lt;font style=&quot;font-size: 16px&quot;&gt;Logs&lt;/font&gt;" style="shape=image;html=1;verticalAlign=top;verticalLabelPosition=bottom;labelBackgroundColor=#ffffff;imageAspect=0;aspect=fixed;image=https://cdn4.iconfinder.com/data/icons/music-ui-solid-24px/24/folder_file_project_archive-2-128.png;fontFamily=Helvetica;fontSize=12;fontColor=#000000;align=center;strokeColor=#000000;fillColor=#ffffff;sketch=1;" parent="1" vertex="1">
          <mxGeometry x="471" y="150" width="85" height="85" as="geometry" />
        </mxCell>
        <mxCell id="E6hC4jQGeJp1f0W_XPi9-15" value="" style="edgeStyle=orthogonalEdgeStyle;orthogonalLoop=1;jettySize=auto;html=1;curved=1;sketch=1;entryX=-0.002;entryY=0.147;entryDx=0;entryDy=0;entryPerimeter=0;exitX=1;exitY=0.5;exitDx=0;exitDy=0;" parent="1" source="E6hC4jQGeJp1f0W_XPi9-12" target="6a7d8f32e03d9370-57" edge="1">
          <mxGeometry relative="1" as="geometry">
            <Array as="points">
              <mxPoint x="152" y="214" />
            </Array>
          </mxGeometry>
        </mxCell>
        <mxCell id="E6hC4jQGeJp1f0W_XPi9-12" value="&lt;font style=&quot;font-size: 16px&quot;&gt;Gateways&lt;/font&gt;" style="shape=image;html=1;verticalAlign=top;verticalLabelPosition=bottom;labelBackgroundColor=#ffffff;imageAspect=0;aspect=fixed;image=https://cdn3.iconfinder.com/data/icons/lexter-flat-colorfull-file-formats/56/csv-128.png;fontFamily=Helvetica;fontSize=14;fontColor=#000000;align=center;strokeColor=#000000;fillColor=#66B2FF;gradientColor=#0066CC;sketch=1;" parent="1" vertex="1">
          <mxGeometry x="60" y="100" width="92" height="88" as="geometry" />
        </mxCell>
        <mxCell id="E6hC4jQGeJp1f0W_XPi9-14" value="" style="edgeStyle=orthogonalEdgeStyle;orthogonalLoop=1;jettySize=auto;html=1;curved=1;sketch=1;entryX=-0.008;entryY=0.176;entryDx=0;entryDy=0;entryPerimeter=0;" parent="1" source="E6hC4jQGeJp1f0W_XPi9-13" target="6a7d8f32e03d9370-57" edge="1">
          <mxGeometry relative="1" as="geometry">
            <Array as="points">
              <mxPoint x="190" y="284" />
              <mxPoint x="190" y="235" />
            </Array>
            <mxPoint x="190" y="280" as="sourcePoint" />
            <mxPoint x="210" y="190" as="targetPoint" />
          </mxGeometry>
        </mxCell>
        <mxCell id="E6hC4jQGeJp1f0W_XPi9-13" value="&lt;font style=&quot;font-size: 16px&quot;&gt;Configuration&lt;/font&gt;" style="dashed=0;outlineConnect=0;html=1;align=center;labelPosition=center;verticalLabelPosition=bottom;verticalAlign=top;shape=mxgraph.webicons.json;gradientColor=#ffffff;fontFamily=Helvetica;fontSize=14;fontColor=#000000;strokeColor=#000000;sketch=0;fillStyle=auto;fillColor=none;" parent="1" vertex="1">
          <mxGeometry x="60" y="239.5" width="92" height="88" as="geometry" />
        </mxCell>
        <mxCell id="cS2_gpzCforKgWBa57rc-22" value="&lt;font style=&quot;font-size: 16px&quot;&gt;Lambda function&lt;/font&gt;" style="outlineConnect=0;dashed=0;verticalLabelPosition=bottom;verticalAlign=top;align=center;html=1;shape=mxgraph.aws3.lambda;fillColor=#F58534;gradientColor=none;labelBackgroundColor=#ffffff;sketch=1;" parent="1" vertex="1">
          <mxGeometry x="871" y="296.5" width="52.23" height="63.5" as="geometry" />
        </mxCell>
        <mxCell id="cS2_gpzCforKgWBa57rc-7" value="&lt;font style=&quot;font-size: 16px&quot;&gt;API Gateway&lt;br&gt;&lt;/font&gt;" style="outlineConnect=0;dashed=0;verticalLabelPosition=bottom;verticalAlign=top;align=center;html=1;shape=mxgraph.aws3.api_gateway;fillColor=#D9A741;gradientColor=none;labelBackgroundColor=#ffffff;sketch=1;" parent="1" vertex="1">
          <mxGeometry x="721" y="296.5" width="52.23" height="63.5" as="geometry" />
        </mxCell>
        <mxCell id="vg4Q64sPSbRJCFcJ-0NS-4" value="&lt;div style=&quot;font-size: 16px&quot;&gt;&lt;font style=&quot;font-size: 16px&quot;&gt;Goroutine burst #2&lt;br&gt;&lt;/font&gt;&lt;/div&gt;" style="shape=image;html=1;verticalAlign=top;verticalLabelPosition=bottom;labelBackgroundColor=#ffffff;imageAspect=0;aspect=fixed;image=https://cdn0.iconfinder.com/data/icons/web-development-79/32/development_setting_gear_cogwheel-71-128.png;sketch=1;" vertex="1" parent="1">
          <mxGeometry x="483.25" y="391.5" width="60.5" height="60.5" as="geometry" />
        </mxCell>
        <mxCell id="vg4Q64sPSbRJCFcJ-0NS-7" style="edgeStyle=orthogonalEdgeStyle;orthogonalLoop=1;jettySize=auto;html=1;curved=1;sketch=1;exitX=0;exitY=0.5;exitDx=0;exitDy=0;entryX=1;entryY=0.5;entryDx=0;entryDy=0;" edge="1" parent="1" source="vg4Q64sPSbRJCFcJ-0NS-4" target="6a7d8f32e03d9370-24">
          <mxGeometry relative="1" as="geometry">
            <Array as="points">
              <mxPoint x="483" y="420" />
              <mxPoint x="440" y="420" />
              <mxPoint x="440" y="364" />
            </Array>
            <mxPoint x="481" y="339.75" as="sourcePoint" />
            <mxPoint x="375.5" y="436.5" as="targetPoint" />
          </mxGeometry>
        </mxCell>
        <mxCell id="vg4Q64sPSbRJCFcJ-0NS-13" style="edgeStyle=none;html=1;startSize=10;endSize=10;jettySize=auto;orthogonalLoop=1;fontSize=14;endArrow=none;endFill=0;strokeWidth=2;curved=1;sketch=1;exitX=1;exitY=0.5;exitDx=0;exitDy=0;entryX=0.35;entryY=0.5;entryDx=0;entryDy=0;entryPerimeter=0;" edge="1" parent="1" target="vg4Q64sPSbRJCFcJ-0NS-16">
          <mxGeometry relative="1" as="geometry">
            <mxPoint x="531.5" y="423.25" as="sourcePoint" />
            <mxPoint x="728" y="436.63687150837984" as="targetPoint" />
          </mxGeometry>
        </mxCell>
        <mxCell id="vg4Q64sPSbRJCFcJ-0NS-14" value="" style="edgeStyle=orthogonalEdgeStyle;orthogonalLoop=1;jettySize=auto;html=1;curved=1;sketch=1;" edge="1" parent="1" source="vg4Q64sPSbRJCFcJ-0NS-16" target="vg4Q64sPSbRJCFcJ-0NS-15">
          <mxGeometry relative="1" as="geometry" />
        </mxCell>
        <mxCell id="vg4Q64sPSbRJCFcJ-0NS-15" value="&lt;font style=&quot;font-size: 16px&quot;&gt;Lambda function&lt;/font&gt;" style="outlineConnect=0;dashed=0;verticalLabelPosition=bottom;verticalAlign=top;align=center;html=1;shape=mxgraph.aws3.lambda;fillColor=#F58534;gradientColor=none;labelBackgroundColor=#ffffff;sketch=1;" vertex="1" parent="1">
          <mxGeometry x="871" y="390" width="52.23" height="63.5" as="geometry" />
        </mxCell>
        <mxCell id="vg4Q64sPSbRJCFcJ-0NS-16" value="&lt;font style=&quot;font-size: 16px&quot;&gt;API Gateway&lt;br&gt;&lt;/font&gt;" style="outlineConnect=0;dashed=0;verticalLabelPosition=bottom;verticalAlign=top;align=center;html=1;shape=mxgraph.aws3.api_gateway;fillColor=#D9A741;gradientColor=none;labelBackgroundColor=#ffffff;sketch=1;" vertex="1" parent="1">
          <mxGeometry x="721" y="390" width="52.23" height="63.5" as="geometry" />
        </mxCell>
        <mxCell id="vg4Q64sPSbRJCFcJ-0NS-57" value="" style="edgeStyle=orthogonalEdgeStyle;curved=1;sketch=1;orthogonalLoop=1;jettySize=auto;html=1;entryX=1;entryY=0.5;entryDx=0;entryDy=0;" edge="1" parent="1" source="vg4Q64sPSbRJCFcJ-0NS-28" target="6a7d8f32e03d9370-24">
          <mxGeometry relative="1" as="geometry">
            <Array as="points">
              <mxPoint x="433" y="513" />
              <mxPoint x="433" y="364" />
            </Array>
          </mxGeometry>
        </mxCell>
        <mxCell id="vg4Q64sPSbRJCFcJ-0NS-28" value="&lt;div style=&quot;font-size: 16px&quot;&gt;&lt;font style=&quot;font-size: 16px&quot;&gt;Goroutine burst #n&lt;/font&gt;&lt;/div&gt;" style="shape=image;html=1;verticalAlign=top;verticalLabelPosition=bottom;labelBackgroundColor=#ffffff;imageAspect=0;aspect=fixed;image=https://cdn2.iconfinder.com/data/icons/arrows-and-universal-actions-icon-set/256/more-128.png;fontFamily=Helvetica;fontSize=12;fontColor=#000000;align=center;strokeColor=#000000;fillColor=#ffffff;sketch=1;" vertex="1" parent="1">
          <mxGeometry x="483.25" y="483" width="60.5" height="60.5" as="geometry" />
        </mxCell>
        <mxCell id="vg4Q64sPSbRJCFcJ-0NS-29" style="edgeStyle=none;html=1;startSize=10;endSize=10;jettySize=auto;orthogonalLoop=1;fontSize=14;endArrow=none;endFill=0;strokeWidth=2;curved=1;sketch=1;exitX=1;exitY=0.5;exitDx=0;exitDy=0;entryX=0;entryY=0.5;entryDx=0;entryDy=0;" edge="1" parent="1" target="vg4Q64sPSbRJCFcJ-0NS-32">
          <mxGeometry relative="1" as="geometry">
            <mxPoint x="531.5" y="513.25" as="sourcePoint" />
            <mxPoint x="728" y="526.6368715083798" as="targetPoint" />
          </mxGeometry>
        </mxCell>
        <mxCell id="vg4Q64sPSbRJCFcJ-0NS-30" value="" style="edgeStyle=orthogonalEdgeStyle;orthogonalLoop=1;jettySize=auto;html=1;curved=1;sketch=1;" edge="1" parent="1" source="vg4Q64sPSbRJCFcJ-0NS-32" target="vg4Q64sPSbRJCFcJ-0NS-31">
          <mxGeometry relative="1" as="geometry" />
        </mxCell>
        <mxCell id="vg4Q64sPSbRJCFcJ-0NS-31" value="&lt;font style=&quot;font-size: 16px&quot;&gt;Lambda function&lt;/font&gt;" style="shape=image;html=1;verticalAlign=top;verticalLabelPosition=bottom;labelBackgroundColor=#ffffff;imageAspect=0;aspect=fixed;image=https://cdn2.iconfinder.com/data/icons/arrows-and-universal-actions-icon-set/256/more-128.png;dashed=0;fontFamily=Helvetica;fontSize=12;fontColor=#000000;align=center;strokeColor=#000000;fillColor=#F58534;sketch=1;" vertex="1" parent="1">
          <mxGeometry x="871" y="480" width="52.23" height="63.5" as="geometry" />
        </mxCell>
        <mxCell id="vg4Q64sPSbRJCFcJ-0NS-32" value="&lt;font style=&quot;font-size: 16px&quot;&gt;API Gateway&lt;br&gt;&lt;/font&gt;" style="shape=image;html=1;verticalAlign=top;verticalLabelPosition=bottom;labelBackgroundColor=#ffffff;imageAspect=0;aspect=fixed;image=https://cdn2.iconfinder.com/data/icons/arrows-and-universal-actions-icon-set/256/more-128.png;dashed=0;fontFamily=Helvetica;fontSize=12;fontColor=#000000;align=center;strokeColor=#000000;fillColor=#D9A741;sketch=1;" vertex="1" parent="1">
          <mxGeometry x="721" y="480" width="52.23" height="63.5" as="geometry" />
        </mxCell>
        <mxCell id="vg4Q64sPSbRJCFcJ-0NS-49" value="&lt;div style=&quot;font-size: 16px&quot;&gt;&lt;font style=&quot;font-size: 16px&quot;&gt;Goroutine burst #1&lt;br&gt;&lt;/font&gt;&lt;/div&gt;" style="shape=image;html=1;verticalAlign=top;verticalLabelPosition=bottom;labelBackgroundColor=#ffffff;imageAspect=0;aspect=fixed;image=https://cdn0.iconfinder.com/data/icons/web-development-79/32/development_setting_gear_cogwheel-71-128.png;sketch=1;" vertex="1" parent="1">
          <mxGeometry x="483.25" y="630" width="60.5" height="60.5" as="geometry" />
        </mxCell>
        <mxCell id="vg4Q64sPSbRJCFcJ-0NS-50" style="edgeStyle=orthogonalEdgeStyle;orthogonalLoop=1;jettySize=auto;html=1;curved=1;sketch=1;exitX=0;exitY=0.5;exitDx=0;exitDy=0;entryX=1;entryY=0.5;entryDx=0;entryDy=0;" edge="1" parent="1" source="vg4Q64sPSbRJCFcJ-0NS-49" target="vg4Q64sPSbRJCFcJ-0NS-65">
          <mxGeometry relative="1" as="geometry">
            <Array as="points">
              <mxPoint x="439" y="660" />
              <mxPoint x="439" y="638" />
            </Array>
            <mxPoint x="481" y="625" as="sourcePoint" />
            <mxPoint x="394.15999999999985" y="660.25" as="targetPoint" />
          </mxGeometry>
        </mxCell>
        <mxCell id="vg4Q64sPSbRJCFcJ-0NS-51" style="edgeStyle=none;html=1;startSize=10;endSize=10;jettySize=auto;orthogonalLoop=1;fontSize=14;endArrow=none;endFill=0;strokeWidth=2;curved=1;sketch=1;exitX=1;exitY=0.5;exitDx=0;exitDy=0;entryX=0.35;entryY=0.5;entryDx=0;entryDy=0;entryPerimeter=0;" edge="1" parent="1" target="vg4Q64sPSbRJCFcJ-0NS-54" source="vg4Q64sPSbRJCFcJ-0NS-49">
          <mxGeometry relative="1" as="geometry">
            <mxPoint x="531.5" y="708.5" as="sourcePoint" />
            <mxPoint x="728" y="721.8868715083798" as="targetPoint" />
            <Array as="points">
              <mxPoint x="630" y="660" />
            </Array>
          </mxGeometry>
        </mxCell>
        <mxCell id="vg4Q64sPSbRJCFcJ-0NS-52" value="" style="edgeStyle=orthogonalEdgeStyle;orthogonalLoop=1;jettySize=auto;html=1;curved=1;sketch=1;" edge="1" parent="1" source="vg4Q64sPSbRJCFcJ-0NS-54" target="vg4Q64sPSbRJCFcJ-0NS-53">
          <mxGeometry relative="1" as="geometry" />
        </mxCell>
        <mxCell id="vg4Q64sPSbRJCFcJ-0NS-53" value="&lt;font style=&quot;font-size: 16px&quot;&gt;Azure functions&lt;/font&gt;" style="aspect=fixed;html=1;points=[];align=center;image;fontSize=12;image=img/lib/azure2/compute/Function_Apps.svg;dashed=0;fontFamily=Helvetica;fontColor=#000000;strokeColor=#000000;fillColor=#F58534;sketch=1;" vertex="1" parent="1">
          <mxGeometry x="871" y="628.5" width="52.23" height="63.5" as="geometry" />
        </mxCell>
        <mxCell id="vg4Q64sPSbRJCFcJ-0NS-54" value="&lt;font style=&quot;font-size: 16px&quot;&gt;HTTP Trigger&lt;br&gt;&lt;/font&gt;" style="aspect=fixed;html=1;points=[];align=center;image;fontSize=12;image=img/lib/azure2/general/Power.svg;dashed=0;fontFamily=Helvetica;fontColor=#000000;strokeColor=#000000;fillColor=#D9A741;sketch=1;" vertex="1" parent="1">
          <mxGeometry x="725.11" y="633.5" width="44" height="53.5" as="geometry" />
        </mxCell>
        <mxCell id="vg4Q64sPSbRJCFcJ-0NS-59" value="&lt;div style=&quot;font-size: 16px&quot;&gt;&lt;font style=&quot;font-size: 16px&quot;&gt;Cooldown&lt;br&gt;&lt;/font&gt;&lt;/div&gt;" style="edgeLabel;html=1;align=center;verticalAlign=middle;resizable=0;points=[];" vertex="1" connectable="0" parent="1">
          <mxGeometry x="639.9951782474391" y="421.75136201306736" as="geometry" />
        </mxCell>
        <mxCell id="vg4Q64sPSbRJCFcJ-0NS-60" value="&lt;div style=&quot;font-size: 16px&quot;&gt;&lt;font style=&quot;font-size: 16px&quot;&gt;Cooldown&lt;br&gt;&lt;/font&gt;&lt;/div&gt;" style="edgeLabel;html=1;align=center;verticalAlign=middle;resizable=0;points=[];" vertex="1" connectable="0" parent="1">
          <mxGeometry x="639.9951782474391" y="510.50136201306736" as="geometry" />
        </mxCell>
        <mxCell id="vg4Q64sPSbRJCFcJ-0NS-61" value="&lt;font style=&quot;font-size: 22px&quot;&gt;Any Public URL&lt;br&gt;&lt;/font&gt;" style="whiteSpace=wrap;html=1;fillColor=#eeeeee;fontSize=14;verticalAlign=top;sketch=1;strokeColor=#36393d;" vertex="1" parent="1">
          <mxGeometry x="689" y="110" width="281" height="110" as="geometry" />
        </mxCell>
        <mxCell id="vg4Q64sPSbRJCFcJ-0NS-64" value="" style="edgeStyle=orthogonalEdgeStyle;orthogonalLoop=1;jettySize=auto;html=1;curved=1;sketch=1;exitX=0.5;exitY=1;exitDx=0;exitDy=0;" edge="1" parent="1" source="vg4Q64sPSbRJCFcJ-0NS-65" target="vg4Q64sPSbRJCFcJ-0NS-66">
          <mxGeometry relative="1" as="geometry" />
        </mxCell>
        <mxCell id="vg4Q64sPSbRJCFcJ-0NS-65" value="&lt;font style=&quot;font-size: 16px&quot;&gt;Recorded Latencies&lt;/font&gt;" style="shape=image;html=1;verticalAlign=top;verticalLabelPosition=bottom;labelBackgroundColor=#ffffff;imageAspect=0;aspect=fixed;image=https://cdn3.iconfinder.com/data/icons/lexter-flat-colorfull-file-formats/56/csv-128.png;fontFamily=Helvetica;fontSize=14;fontColor=#000000;align=center;strokeColor=#000000;fillColor=#66B2FF;gradientColor=#0066CC;sketch=1;" vertex="1" parent="1">
          <mxGeometry x="317.85" y="601.75" width="76.31" height="73" as="geometry" />
        </mxCell>
        <mxCell id="vg4Q64sPSbRJCFcJ-0NS-66" value="&lt;font style=&quot;font-size: 16px&quot;&gt;CDFs, Bar Charts etc.&lt;br&gt;&lt;/font&gt;" style="shape=image;html=1;verticalAlign=top;verticalLabelPosition=bottom;labelBackgroundColor=#ffffff;imageAspect=0;aspect=fixed;image=https://cdn3.iconfinder.com/data/icons/finance-152/64/44-128.png;fontFamily=Helvetica;fontSize=14;fontColor=#000000;align=center;fillColor=#66B2FF;gradientColor=#0066CC;sketch=1;" vertex="1" parent="1">
          <mxGeometry x="326.21" y="727.75" width="59.58" height="57" as="geometry" />
        </mxCell>
        <mxCell id="vg4Q64sPSbRJCFcJ-0NS-69" value="" style="edgeStyle=orthogonalEdgeStyle;curved=1;sketch=1;orthogonalLoop=1;jettySize=auto;html=1;" edge="1" parent="1" source="vg4Q64sPSbRJCFcJ-0NS-70">
          <mxGeometry relative="1" as="geometry">
            <mxPoint x="394" y="640" as="targetPoint" />
            <Array as="points">
              <mxPoint x="433" y="759" />
              <mxPoint x="433" y="640" />
              <mxPoint x="394" y="640" />
            </Array>
          </mxGeometry>
        </mxCell>
        <mxCell id="vg4Q64sPSbRJCFcJ-0NS-70" value="&lt;div style=&quot;font-size: 16px&quot;&gt;&lt;font style=&quot;font-size: 16px&quot;&gt;Goroutine burst #n&lt;/font&gt;&lt;/div&gt;" style="shape=image;html=1;verticalAlign=top;verticalLabelPosition=bottom;labelBackgroundColor=#ffffff;imageAspect=0;aspect=fixed;image=https://cdn2.iconfinder.com/data/icons/arrows-and-universal-actions-icon-set/256/more-128.png;fontFamily=Helvetica;fontSize=12;fontColor=#000000;align=center;strokeColor=#000000;fillColor=#ffffff;sketch=1;" vertex="1" parent="1">
          <mxGeometry x="483.25" y="729" width="60.5" height="60.5" as="geometry" />
        </mxCell>
        <mxCell id="vg4Q64sPSbRJCFcJ-0NS-71" style="edgeStyle=none;html=1;startSize=10;endSize=10;jettySize=auto;orthogonalLoop=1;fontSize=14;endArrow=none;endFill=0;strokeWidth=2;curved=1;sketch=1;exitX=1;exitY=0.5;exitDx=0;exitDy=0;entryX=0;entryY=0.5;entryDx=0;entryDy=0;" edge="1" parent="1" target="vg4Q64sPSbRJCFcJ-0NS-74">
          <mxGeometry relative="1" as="geometry">
            <mxPoint x="531.5" y="759.25" as="sourcePoint" />
            <mxPoint x="728" y="772.6368715083798" as="targetPoint" />
          </mxGeometry>
        </mxCell>
        <mxCell id="vg4Q64sPSbRJCFcJ-0NS-72" value="" style="edgeStyle=orthogonalEdgeStyle;orthogonalLoop=1;jettySize=auto;html=1;curved=1;sketch=1;" edge="1" parent="1" source="vg4Q64sPSbRJCFcJ-0NS-74" target="vg4Q64sPSbRJCFcJ-0NS-73">
          <mxGeometry relative="1" as="geometry" />
        </mxCell>
        <mxCell id="vg4Q64sPSbRJCFcJ-0NS-73" value="&lt;font style=&quot;font-size: 16px&quot;&gt;Azure functions&lt;/font&gt;" style="shape=image;html=1;verticalAlign=top;verticalLabelPosition=bottom;labelBackgroundColor=#ffffff;imageAspect=0;aspect=fixed;image=https://cdn2.iconfinder.com/data/icons/arrows-and-universal-actions-icon-set/256/more-128.png;dashed=0;fontFamily=Helvetica;fontSize=12;fontColor=#000000;align=center;strokeColor=#000000;fillColor=#F58534;sketch=1;" vertex="1" parent="1">
          <mxGeometry x="871" y="726" width="52.23" height="63.5" as="geometry" />
        </mxCell>
        <mxCell id="vg4Q64sPSbRJCFcJ-0NS-74" value="&lt;font style=&quot;font-size: 16px&quot;&gt;HTTP Trigger&lt;br&gt;&lt;/font&gt;" style="shape=image;html=1;verticalAlign=top;verticalLabelPosition=bottom;labelBackgroundColor=#ffffff;imageAspect=0;aspect=fixed;image=https://cdn2.iconfinder.com/data/icons/arrows-and-universal-actions-icon-set/256/more-128.png;dashed=0;fontFamily=Helvetica;fontSize=12;fontColor=#000000;align=center;strokeColor=#000000;fillColor=#D9A741;sketch=1;" vertex="1" parent="1">
          <mxGeometry x="721" y="726" width="52.23" height="63.5" as="geometry" />
        </mxCell>
        <mxCell id="vg4Q64sPSbRJCFcJ-0NS-75" value="&lt;div style=&quot;font-size: 16px&quot;&gt;&lt;font style=&quot;font-size: 16px&quot;&gt;Cooldown&lt;br&gt;&lt;/font&gt;&lt;/div&gt;" style="edgeLabel;html=1;align=center;verticalAlign=middle;resizable=0;points=[];" vertex="1" connectable="0" parent="1">
          <mxGeometry x="639.9951782474391" y="756.5013620130674" as="geometry" />
        </mxCell>
      </root>
    </mxGraphModel>
  </diagram>
</mxfile>
